<svg version="1.1" id="Layer_1" xmlns="http://www.w3.org/2000/svg" xmlns:xlink="http://www.w3.org/1999/xlink" x="0px" y="0px"
	 width="100%" viewBox="0 0 361 286" enable-background="new 0 0 361 286" xml:space="preserve">
<path fill="#020101" opacity="1.000000" stroke="none" 
	d="
M215.000000,287.000000 
	C143.333359,287.000000 72.166718,287.000000 1.000057,287.000000 
	C1.000038,191.666733 1.000038,96.333450 1.000019,1.000134 
	C121.333229,1.000089 241.666458,1.000089 361.999756,1.000045 
	C361.999847,96.333199 361.999847,191.666397 361.999939,286.999817 
	C313.166656,287.000000 264.333344,287.000000 215.000000,287.000000 
M210.603775,127.114304 
	C227.746826,161.307220 244.889893,195.500122 262.032959,229.693024 
	C262.515778,229.676773 262.998596,229.660522 263.481415,229.644257 
	C279.113007,167.254135 294.744598,104.864021 310.376190,42.473904 
	C309.872131,42.260048 309.368073,42.046196 308.864014,41.832340 
	C281.811768,73.269005 254.759552,104.705673 227.011749,136.950638 
	C221.652832,126.461746 216.894012,117.147385 212.060059,107.685959 
	C204.015854,114.031342 204.016815,114.030853 208.016373,121.990349 
	C208.764191,123.478561 209.500610,124.972511 210.603775,127.114304 
M134.505203,164.168594 
	C141.761520,149.734558 149.007019,135.295059 156.278854,120.868851 
	C159.712265,114.057480 158.971893,111.965797 151.342041,108.167038 
	C146.635849,117.437996 141.922424,126.723206 136.721039,136.969681 
	C108.959175,104.697350 81.896957,73.238335 54.834740,41.779316 
	C54.335827,42.023243 53.836914,42.267174 53.338001,42.511105 
	C68.911736,104.710258 84.485474,166.909409 100.059212,229.108566 
	C100.698952,229.082825 101.338684,229.057068 101.978424,229.031311 
	C112.712837,207.634308 123.447250,186.237289 134.505203,164.168594 
M192.933990,69.469978 
	C189.427246,62.493271 185.920517,55.516560 181.853043,47.424267 
	C178.687851,53.734642 175.603867,58.267944 174.063858,63.276024 
	C170.400177,75.190102 162.994385,79.578247 150.736298,77.667419 
	C144.629639,76.715500 138.251999,77.501770 130.633316,77.501770 
	C132.537247,79.725235 133.384857,80.861618 134.377670,81.852516 
	C148.882751,96.329758 163.500290,110.696228 177.852844,125.322838 
	C180.924118,128.452774 182.697464,128.556870 185.800446,125.402641 
	C200.405136,110.556801 215.247498,95.944832 229.989944,81.234283 
	C230.777924,80.448006 231.428314,79.523827 232.759598,77.921333 
	C230.390945,77.742104 228.817184,77.528091 227.242371,77.520073 
	C219.911392,77.482773 212.546173,77.066582 205.259338,77.634575 
	C199.018738,78.121010 194.978989,76.319290 192.933990,69.469978 
M217.784332,158.532196 
	C216.781281,156.537918 215.778229,154.543625 214.427719,151.858521 
	C203.307343,164.705811 192.730103,176.925613 181.822998,189.526505 
	C170.692078,176.617874 160.231995,164.487228 149.648865,152.213867 
	C143.925430,160.016342 143.926895,161.131439 149.299057,167.392944 
	C158.831543,178.503448 168.376862,189.602982 177.932480,200.693604 
	C179.083313,202.029266 180.331299,203.281204 181.581558,204.622711 
	C182.533051,203.960159 183.173462,203.680435 183.585083,203.203339 
	C194.777176,190.230499 205.994629,177.278549 217.032272,164.175217 
	C217.985092,163.044083 217.722504,160.889130 217.784332,158.532196 
M219.496292,222.358170 
	C225.040710,222.358170 230.585129,222.358170 237.354675,222.358170 
	C231.405579,210.421494 226.150879,199.878128 220.394211,188.327545 
	C210.522995,199.838562 201.496277,210.364777 192.469543,220.890991 
	C192.744827,221.379959 193.020126,221.868927 193.295410,222.357895 
	C201.696152,222.357895 210.096909,222.357895 219.496292,222.358170 
M132.242844,210.540085 
	C130.540970,214.051758 128.839081,217.563431 126.760963,221.851425 
	C142.033096,221.851425 156.323212,221.851425 172.078064,221.851425 
	C162.195740,210.316803 153.130783,199.736237 143.366394,188.339294 
	C139.399612,196.278397 136.000046,203.082306 132.242844,210.540085 
z"/>
<path fill="#B99861" opacity="1.000000" stroke="none" 
	d="
M210.423019,126.789062 
	C209.500610,124.972511 208.764191,123.478561 208.016373,121.990349 
	C204.016815,114.030853 204.015854,114.031342 212.060059,107.685959 
	C216.894012,117.147385 221.652832,126.461746 227.011749,136.950638 
	C254.759552,104.705673 281.811768,73.269005 308.864014,41.832340 
	C309.368073,42.046196 309.872131,42.260048 310.376190,42.473904 
	C294.744598,104.864021 279.113007,167.254135 263.481415,229.644257 
	C262.998596,229.660522 262.515778,229.676773 262.032959,229.693024 
	C244.889893,195.500122 227.746826,161.307220 210.423019,126.789062 
M245.133987,131.647522 
	C241.771545,135.564606 238.579941,139.647598 234.990311,143.344055 
	C232.324020,146.089722 232.315247,148.445480 234.016556,151.749680 
	C241.714905,166.701141 249.157272,181.784317 256.716553,196.807587 
	C257.436371,198.238129 258.328033,199.582230 259.953217,202.353088 
	C270.328156,161.017578 280.341034,121.124680 290.353912,81.231789 
	C289.920929,81.001511 289.487915,80.771240 289.054932,80.540970 
	C274.566162,97.394920 260.077362,114.248871 245.133987,131.647522 
z"/>
<path fill="#B99961" opacity="1.000000" stroke="none" 
	d="
M134.343430,164.504440 
	C123.447250,186.237289 112.712837,207.634308 101.978424,229.031311 
	C101.338684,229.057068 100.698952,229.082825 100.059212,229.108566 
	C84.485474,166.909409 68.911736,104.710258 53.338001,42.511105 
	C53.836914,42.267174 54.335827,42.023243 54.834740,41.779316 
	C81.896957,73.238335 108.959175,104.697350 136.721039,136.969681 
	C141.922424,126.723206 146.635849,117.437996 151.342041,108.167038 
	C158.971893,111.965797 159.712265,114.057480 156.278854,120.868851 
	C149.007019,135.295059 141.761520,149.734558 134.343430,164.504440 
M73.946571,80.747139 
	C73.946571,80.747139 73.810684,80.993637 73.810684,80.993637 
	C73.810684,80.993637 74.171738,80.756989 73.805420,81.549980 
	C74.038139,83.027596 74.158348,84.533379 74.520103,85.978699 
	C82.888588,119.412857 91.280579,152.841141 99.676163,186.268509 
	C100.898163,191.133926 102.160606,195.989182 103.747284,202.189194 
	C105.340637,199.592377 106.193771,198.403595 106.843407,197.112411 
	C114.403595,182.086136 121.793694,166.971756 129.567902,152.057449 
	C131.532730,148.288055 131.030228,145.891815 128.356720,142.819839 
	C112.391525,124.475052 96.631935,105.951485 80.745056,87.538200 
	C78.704170,85.172760 76.325432,83.098808 73.946571,80.747139 
z"/>
<path fill="#BA9A61" opacity="1.000000" stroke="none" 
	d="
M193.101944,69.808800 
	C194.978989,76.319290 199.018738,78.121010 205.259338,77.634575 
	C212.546173,77.066582 219.911392,77.482773 227.242371,77.520073 
	C228.817184,77.528091 230.390945,77.742104 232.759598,77.921333 
	C231.428314,79.523827 230.777924,80.448006 229.989944,81.234283 
	C215.247498,95.944832 200.405136,110.556801 185.800446,125.402641 
	C182.697464,128.556870 180.924118,128.452774 177.852844,125.322838 
	C163.500290,110.696228 148.882751,96.329758 134.377670,81.852516 
	C133.384857,80.861618 132.537247,79.725235 130.633316,77.501770 
	C138.251999,77.501770 144.629639,76.715500 150.736298,77.667419 
	C162.994385,79.578247 170.400177,75.190102 174.063858,63.276024 
	C175.603867,58.267944 178.687851,53.734642 181.853043,47.424267 
	C185.920517,55.516560 189.427246,62.493271 193.101944,69.808800 
M194.215042,94.417664 
	C190.300934,86.610016 186.386826,78.802368 181.871475,69.795387 
	C178.748871,75.989159 176.213318,80.791817 173.888565,85.694435 
	C171.629257,90.459045 167.314468,95.731934 168.083115,100.034790 
	C168.860947,104.389114 174.762924,107.828453 178.422211,111.666817 
	C178.651596,111.907433 178.922699,112.111893 179.131058,112.368378 
	C180.881531,114.523117 182.585373,114.502014 184.515717,112.493996 
	C187.281250,109.617218 190.004456,106.657570 193.064911,104.117935 
	C196.345886,101.395294 197.033829,98.605827 194.215042,94.417664 
z"/>
<path fill="#B79760" opacity="1.000000" stroke="none" 
	d="
M217.904419,158.870972 
	C217.722504,160.889130 217.985092,163.044083 217.032272,164.175217 
	C205.994629,177.278549 194.777176,190.230499 183.585083,203.203339 
	C183.173462,203.680435 182.533051,203.960159 181.581558,204.622711 
	C180.331299,203.281204 179.083313,202.029266 177.932480,200.693604 
	C168.376862,189.602982 158.831543,178.503448 149.299057,167.392944 
	C143.926895,161.131439 143.925430,160.016342 149.648865,152.213867 
	C160.231995,164.487228 170.692078,176.617874 181.822998,189.526505 
	C192.730103,176.925613 203.307343,164.705811 214.427719,151.858521 
	C215.778229,154.543625 216.781281,156.537918 217.904419,158.870972 
z"/>
<path fill="#BA9961" opacity="1.000000" stroke="none" 
	d="
M218.996979,222.358032 
	C210.096909,222.357895 201.696152,222.357895 193.295410,222.357895 
	C193.020126,221.868927 192.744827,221.379959 192.469543,220.890991 
	C201.496277,210.364777 210.522995,199.838562 220.394211,188.327545 
	C226.150879,199.878128 231.405579,210.421494 237.354675,222.358170 
	C230.585129,222.358170 225.040710,222.358170 218.996979,222.358032 
z"/>
<path fill="#BB9A61" opacity="1.000000" stroke="none" 
	d="
M132.421661,210.213150 
	C136.000046,203.082306 139.399612,196.278397 143.366394,188.339294 
	C153.130783,199.736237 162.195740,210.316803 172.078064,221.851425 
	C156.323212,221.851425 142.033096,221.851425 126.760963,221.851425 
	C128.839081,217.563431 130.540970,214.051758 132.421661,210.213150 
M147.842316,212.715012 
	C151.829193,208.909622 147.039444,208.781509 145.310867,206.173035 
	C144.420334,208.464294 143.864777,209.893738 143.309204,211.323181 
	C144.579941,211.806091 145.850677,212.289001 147.842316,212.715012 
z"/>
<path fill="#070604" opacity="1.000000" stroke="none" 
	d="
M245.361298,131.375183 
	C260.077362,114.248871 274.566162,97.394920 289.054932,80.540970 
	C289.487915,80.771240 289.920929,81.001511 290.353912,81.231789 
	C280.341034,121.124680 270.328156,161.017578 259.953217,202.353088 
	C258.328033,199.582230 257.436371,198.238129 256.716553,196.807587 
	C249.157272,181.784317 241.714905,166.701141 234.016556,151.749680 
	C232.315247,148.445480 232.324020,146.089722 234.990311,143.344055 
	C238.579941,139.647598 241.771545,135.564606 245.361298,131.375183 
z"/>
<path fill="#080604" opacity="1.000000" stroke="none" 
	d="
M74.103203,80.889824 
	C76.325432,83.098808 78.704170,85.172760 80.745056,87.538200 
	C96.631935,105.951485 112.391525,124.475052 128.356720,142.819839 
	C131.030228,145.891815 131.532730,148.288055 129.567902,152.057449 
	C121.793694,166.971756 114.403595,182.086136 106.843407,197.112411 
	C106.193771,198.403595 105.340637,199.592377 103.747284,202.189194 
	C102.160606,195.989182 100.898163,191.133926 99.676163,186.268509 
	C91.280579,152.841141 82.888588,119.412857 74.520103,85.978699 
	C74.158348,84.533379 74.038139,83.027596 73.972778,81.187378 
	C74.140137,80.824783 74.103203,80.889824 74.103203,80.889824 
z"/>
<path fill="#080604" opacity="1.000000" stroke="none" 
	d="
M74.155937,80.790886 
	C74.171738,80.756989 73.810684,80.993637 73.810684,80.993637 
	C73.810684,80.993637 73.946571,80.747139 74.024887,80.818481 
	C74.103203,80.889824 74.140137,80.824783 74.155937,80.790886 
z"/>
<path fill="#0C0A06" opacity="1.000000" stroke="none" 
	d="
M194.391052,94.760925 
	C197.033829,98.605827 196.345886,101.395294 193.064911,104.117935 
	C190.004456,106.657570 187.281250,109.617218 184.515717,112.493996 
	C182.585373,114.502014 180.881531,114.523117 179.131058,112.368378 
	C178.922699,112.111893 178.651596,111.907433 178.422211,111.666817 
	C174.762924,107.828453 168.860947,104.389114 168.083115,100.034790 
	C167.314468,95.731934 171.629257,90.459045 173.888565,85.694435 
	C176.213318,80.791817 178.748871,75.989159 181.871475,69.795387 
	C186.386826,78.802368 190.300934,86.610016 194.391052,94.760925 
z"/>
<path fill="#443824" opacity="1.000000" stroke="none" 
	d="
M147.481873,212.743469 
	C145.850677,212.289001 144.579941,211.806091 143.309204,211.323181 
	C143.864777,209.893738 144.420334,208.464294 145.310867,206.173035 
	C147.039444,208.781509 151.829193,208.909622 147.481873,212.743469 
z"/>
</svg>